<?xml version="1.0" standalone="no"?>
<!DOCTYPE svg PUBLIC "-//W3C//DTD SVG 20010904//EN"
 "http://www.w3.org/TR/2001/REC-SVG-20010904/DTD/svg10.dtd">
<svg version="1.0" xmlns="http://www.w3.org/2000/svg"
 width="700.000000pt" height="700.000000pt" viewBox="0 0 700.000000 700.000000"
 preserveAspectRatio="xMidYMid meet">
<metadata>
Created by potrace 1.14, written by Peter Selinger 2001-2017
</metadata>
<g transform="translate(0.000000,700.000000) scale(0.100000,-0.100000)"
fill="#000000" stroke="none">
<path d="M3927 5854 c-1 -1 -67 -5 -147 -9 -80 -4 -158 -8 -175 -10 -16 -2
-66 -6 -109 -10 -44 -3 -95 -8 -115 -11 -20 -2 -52 -6 -71 -8 -19 -3 -60 -8
-90 -11 -52 -6 -83 -11 -140 -20 -14 -2 -56 -9 -94 -15 -38 -6 -72 -13 -75
-14 -3 -2 -31 -7 -61 -11 -30 -4 -58 -9 -61 -11 -4 -2 -24 -6 -44 -10 -56 -8
-304 -70 -420 -104 -575 -168 -1041 -396 -1470 -721 -139 -105 -158 -121 -285
-249 -291 -291 -491 -668 -546 -1030 -3 -25 -9 -56 -11 -70 -12 -64 -9 -345 4
-432 62 -403 277 -662 467 -562 64 33 145 110 549 514 546 546 655 651 903
865 113 98 218 184 369 301 113 87 507 361 541 375 5 2 59 34 119 70 155 92
509 279 529 279 3 0 33 13 68 29 110 50 157 71 236 103 116 46 325 118 329
114 3 -2 -6 -7 -19 -11 -252 -78 -737 -325 -1083 -554 -71 -47 -134 -89 -140
-93 -5 -4 -82 -61 -170 -127 -138 -102 -448 -354 -511 -416 -12 -11 -66 -61
-120 -111 -130 -121 -312 -303 -438 -438 -55 -60 -110 -118 -121 -130 -44 -47
-264 -303 -325 -380 -8 -10 -20 -23 -25 -30 -20 -22 -194 -243 -264 -335 -123
-161 -174 -303 -170 -471 3 -106 23 -189 69 -288 111 -237 384 -459 703 -571
48 -17 98 -33 110 -36 12 -2 54 -12 92 -20 407 -91 846 -28 1240 177 59 31
215 127 225 138 3 4 26 20 51 37 62 42 214 178 299 266 134 139 251 300 363
500 37 65 67 120 67 122 0 1 23 52 51 111 47 100 70 151 74 164 1 3 9 23 19
45 10 22 69 171 132 330 101 254 180 448 232 565 43 99 188 387 238 475 119
208 278 438 439 632 91 110 345 370 445 455 30 26 69 59 85 73 85 74 319 251
429 325 44 30 64 48 54 50 -2 1 -21 5 -43 10 -42 10 -479 85 -555 95 -189 25
-272 35 -315 39 -27 3 -66 7 -85 10 -43 6 -217 21 -360 31 -41 3 -113 8 -160
11 -75 6 -707 13 -713 8z m243 -644 c-8 -5 -19 -10 -25 -10 -5 0 -3 5 5 10 8
5 20 10 25 10 6 0 3 -5 -5 -10z"/>
<path d="M6989 4676 c-6 -6 -328 -72 -389 -80 -25 -3 -56 -8 -70 -10 -46 -8
-94 -15 -155 -21 -33 -3 -74 -8 -91 -10 -208 -28 -693 -25 -914 6 -120 16
-110 21 -203 -103 -154 -205 -302 -448 -414 -678 -71 -146 -154 -333 -151
-340 8 -21 655 191 975 319 219 87 577 255 726 340 93 53 107 60 107 56 0 -5
-221 -153 -310 -208 -199 -123 -482 -273 -680 -362 -58 -26 -127 -57 -155 -69
-27 -13 -129 -53 -225 -90 -96 -37 -182 -71 -190 -75 -8 -4 -87 -31 -175 -60
l-160 -53 -78 -204 c-268 -703 -496 -1104 -796 -1404 -64 -64 -129 -126 -146
-138 -29 -21 -27 -20 45 4 41 14 93 34 116 44 22 11 64 28 93 40 87 34 317
148 459 227 999 557 1928 1503 2743 2793 48 76 51 80 46 80 -2 0 -6 -2 -8 -4z"/>
</g>
</svg>
